# xmcd
#
# Track frame offsets: 
#        150
#        11124
#        21510
#        32999
#        44963
#        55457
#        65608
#        78179
#        88715
#        99477
#        110382
#        122777
#        133288
#        143228
#        155728
#        169966
#        182579
#        192104
#        203320
#        216133
#        225063
#        234679
#        245785
#        257774
#        269525
#        280294
#        292494
#
# Disc length: 4024 seconds
#
# Revision: 0
# Processed by: cddbd v1.5.2PL0 Copyright (c) Steve Scherf et al.
# Submitted via: ExactAudioCopy v1.1
#
DISCID=a40fb61b
DTITLE=Jean Shepard - Jean Shepard_Five Classic Albums_CD2
DYEAR=2015
DGENRE=Country
TTITLE0=A Satisfied Mind
TTITLE1=Two Whoops And A Holler
TTITLE2=I'd Rather Die Young
TTITLE3=Why Did You Wait
TTITLE4=The Other Woman
TTITLE5=Act Like A Married Man
TTITLE6=Beautiful Lies
TTITLE7=You're Calling Me Sweetheart Again
TTITLE8=Under Suspicion
TTITLE9=Crying Steel Guitar Waltz
TTITLE10=My Wedding Ring
TTITLE11=I Learned It All From You
TTITLE12=Big Midnight Special
TTITLE13=Blues Stay Away From Me
TTITLE14=The Waltz Of The Angels
TTITLE15=Another (Just Like Me)
TTITLE16=One White Rose
TTITLE17=I Don't Apologize For Loving You
TTITLE18=Under Your Spell Again
TTITLE19=You're The Only Good Thing
TTITLE20=Got You On My Mind
TTITLE21=If You Haven't, You Can't Feel The Way I Do
TTITLE22=Mockin' Bird Hill
TTITLE23=The Color Song ( I Lost My Love)
TTITLE24=Jean Shepard, Ferlin Husky - Forgive Me,John (With Ferlin Hus
TTITLE24=ky)
TTITLE25=The Glass That Stands Beside You
TTITLE26=Jean Shepard, Ferlin Husky - Let's Kiss And Try Again (With F
TTITLE26=erlin Husky)
EXTD=
EXTT0=
EXTT1=
EXTT2=
EXTT3=
EXTT4=
EXTT5=
EXTT6=
EXTT7=
EXTT8=
EXTT9=
EXTT10=
EXTT11=
EXTT12=
EXTT13=
EXTT14=
EXTT15=
EXTT16=
EXTT17=
EXTT18=
EXTT19=
EXTT20=
EXTT21=
EXTT22=
EXTT23=
EXTT24=
EXTT25=
EXTT26=
PLAYORDER=
